<svg xmlns="http://www.w3.org/2000/svg" xmlns:xlink="http://www.w3.org/1999/xlink" width="964" height="683" viewBox="0 0 964 683">
  <defs>
    <clipPath id="clip-path">
      <path id="Path_180" data-name="Path 180" d="M848.646,411.418H657.914l-21.6-78.066-1.653-5.987-1.414-5.1L629.93,310.29H817.917l3.637,11.973,1.545,5.1,1.823,5.987Z" transform="translate(-629.93 -310.29)" fill="none"/>
    </clipPath>
  </defs>
  <g id="Group_1" data-name="Group 1" transform="translate(-8 -228)">
    <g id="Layer_2" data-name="Layer 2" transform="translate(8 484.984)">
      <g id="Слой_2" data-name="Слой 2" transform="translate(0 -91.984)">
        <path id="Path_1" data-name="Path 1" d="M889.779,378.115s100.176-104.784,16.942-218.223C832.864,59.237,746.75,66.14,683.568,106.967c-26.91,17.4-124.3,96.439-190.333-5.978C403.176-38.669,110.848-48.263,167.76,166.621,195.305,270.6,57.512,274.388,114.246,378.337Z" transform="translate(-56.721 -0.016)" fill="#dde8fd"/>
        <g id="girl_2" data-name="girl 2" transform="translate(90.374 191.515)">
          <path id="Path_2" data-name="Path 2" d="M292.164,545s-28.115,12.248-33.218,12.025-36.547-9.572-36.547-9.572l.8,5.377s24.271,13.958,32.753,14.747c8.354.779,36.914-7.5,39.67-9.246S300.177,546.74,292.164,545Z" transform="translate(-216.013 -499.407)" fill="#fc9796"/>
          <path id="Path_3" data-name="Path 3" d="M372.806,440.722s10.372-1.974,15.538,1.8c9.357,6.835,9.859,30.39,13.365,33.9s11.96,2.01,12.713,20.174-3.368,19.674,1.54,27.784-2.075,16.22-2.075,16.22,2.859-4.473,1.631-7.7c0,0-1.192,7.125-5.716,8.8s-5.2,2.9-5.923,5.347c0,0-38.631-19.8-38.674-33.836s-7.6-27.949-3.89-34.031a13.462,13.462,0,0,0-1.857,5.492,7.239,7.239,0,0,1,1.631-8.241c3.863-3.972-4.529-12.182-3.284-21.719C358.662,448.166,363.252,440.987,372.806,440.722Z" transform="translate(-292.435 -440.206)" fill="#0d0d38"/>
          <path id="Path_4" data-name="Path 4" d="M374.89,537.386a27.043,27.043,0,0,0,9.45,4.025c14.571,3.368,20.153-8.945,22.25-17.4a12.518,12.518,0,0,0-4.938-1.519c-1.053-.126-2.175-.2-3.076-.252-1.636-1.252-4.073-6.383-4.612-14.357l-.687.183L381.8,511.2s.526,3.65.783,7.1c.2,2.7.231,5.278-.278,5.912-.9.2-1.431.322-1.431.322h0a73.926,73.926,0,0,0-5.978,12.848Z" transform="translate(-302.159 -478.436)" fill="#fdb5b4"/>
          <path id="Path_5" data-name="Path 5" d="M390.77,511.491s.526,3.646.783,7.1c6.524-.652,9.524-6.844,10.7-10.242Z" transform="translate(-311.13 -478.702)" fill="#fc9796"/>
          <path id="Path_6" data-name="Path 6" d="M377.953,489.049s15.44-.87,14.766-10.442.871-16.189-9.028-16.053-11.542,3.938-12.095,7.2S373.908,489.022,377.953,489.049Z" transform="translate(-300.257 -452.831)" fill="#fdb5b4"/>
          <path id="Path_7" data-name="Path 7" d="M368.852,461.815c2.175-3.046,4.024-2.554,5.1-1.74A10.835,10.835,0,0,1,387.97,461.3a18.4,18.4,0,0,0,6.782,10.411s-2.684,1.936-9.284.735a11.04,11.04,0,0,1-5.508-3.246,36.077,36.077,0,0,0,6.73,7.1c-8-3.024-11.878-13.564-12.269-14.68-.871.913-2.611,2.884-3.046,4.722-.591,2.5-3.154,6.413-4.636,6.348C366.742,472.688,365.589,466.4,368.852,461.815Z" transform="translate(-297.443 -450.279)" fill="#0d0d38"/>
          <path id="Path_8" data-name="Path 8" d="M398.763,585.332c1.4-7.125,5.939-35.607,1.4-44.769-1.631-3.293-8.04-3.589-15.071-3.3-2.175,1.414-10.525,6.748-13.944,6.1l-.191-.044c-1.614-.4-2.219-1.536-.871-2.51a30.667,30.667,0,0,0-7.805.478c-2.441.461-9.028,3.867-9.028,3.867s3.315,5.991,8.21,8.062c-.831,7.439.4,10.72,8.123,27.905,6.524,14.523-.87,27.6-.87,27.6s38.391,30.89,38.609,15.149C407.462,612.019,396.984,594.443,398.763,585.332Z" transform="translate(-289.934 -494.987)" fill="#a83f3f"/>
          <path id="Path_9" data-name="Path 9" d="M337.726,669.078a7.136,7.136,0,0,1-5.134-3.124l-.591-.892c-4.351-6.617-6.1-26.874-15.9-48.459-2.4-5.268-10.988-6.2-13.34-12.143,0,0-5.769-19.252,11.043-19.822s45.022,53.568,45.465,59.248C359.7,649.382,370.378,672.759,337.726,669.078Z" transform="translate(-260.87 -521.795)" fill="#fa7970"/>
          <path id="Path_10" data-name="Path 10" d="M230.82,761.587h23.929s.9-3.816-.675-6.413c-1.392-2.3-.87-3.606.172-5.508a9.3,9.3,0,0,1-4.029.757,8.422,8.422,0,0,1-3.559-1.253c-1.03,1.174-5.438,6.169-6.818,7.161C238.272,757.459,231.3,757.058,230.82,761.587Z" transform="translate(-220.77 -614.748)" fill="#9e332e"/>
          <path id="Path_11" data-name="Path 11" d="M405.1,562.11s3.115,28.329-17.084,34.267-25.926-26.066-9.623-28.367A157.051,157.051,0,0,0,405.1,562.11Z" transform="translate(-298.785 -509.072)" fill="#9e332e"/>
          <path id="Path_12" data-name="Path 12" d="M279.958,589.213c-1.441,10.8-7.065,44.887-16.99,61.52-3.2,5.36,8.062,8.367,8.123,8.354,1.51-.4,4.025-2.8,5.186-3.846,8.058-7.262,24.411-27.824,24.411-44.3,0-8.036.139-23.386-5.7-27.288C291.374,581.237,280.528,584.923,279.958,589.213Z" transform="translate(-238.608 -520.808)" fill="#fb8a82"/>
          <path id="Path_13" data-name="Path 13" d="M370.571,667.041s-.871-1.235-2.432-3.576c-1.841-2.785-3.877-8.266-6.348-15.3-2.611-7.4-5.656-16.459-9.52-25.9-1.188-2.919-2.449-5.869-3.789-8.815-2.393-5.256-8.98-4.529-11.312-10.468,0,0-9.137-20.592,7.666-21.162s48.728,55.09,50.586,60.476C397.419,648.189,407.222,672.693,370.571,667.041Z" transform="translate(-279.449 -520.201)" fill="#fc9796"/>
          <path id="Path_14" data-name="Path 14" d="M271.18,761.587h23.929s.9-3.816-.675-6.413c-1.392-2.3-.87-3.606.172-5.508a9.292,9.292,0,0,1-4.029.757,8.424,8.424,0,0,1-3.559-1.253c-1.03,1.174-5.438,6.169-6.818,7.161C278.633,757.458,271.663,757.058,271.18,761.587Z" transform="translate(-243.57 -614.748)" fill="#a83f3f"/>
          <path id="Path_15" data-name="Path 15" d="M384.64,679.985c-2.611-7.4-5.656-16.459-9.52-25.9,1.005-7.157,3.172-13.418,6.818-15.941C381.928,638.136,390.77,665.523,384.64,679.985Z" transform="translate(-302.289 -552.024)" fill="#fb8a82"/>
          <path id="Path_16" data-name="Path 16" d="M316.729,589.023c-1.441,10.8-3.48,45.653-13.392,62.285-3.2,5.36,8.062,8.367,8.123,8.354,1.51-.4,4.025-2.8,5.186-3.846,8.058-7.262,24.412-27.823,24.412-44.3,0-8.036-9.432-22.742-15.276-26.644a5.878,5.878,0,0,0-9.054,4.155Z" transform="translate(-261.414 -521.384)" fill="#fc9796"/>
          <path id="Path_17" data-name="Path 17" d="M213.991,515.189l24.5-2.611a1.584,1.584,0,0,1,1.645,1.01l8.767,23.033a1.584,1.584,0,0,1-1.414,2.14l-24.312.979a1.584,1.584,0,0,1-1.523-.97L212.7,517.355a1.58,1.58,0,0,1,1.292-2.167Z" transform="translate(-210.466 -481.086)" fill="#9e332e"/>
          <path id="Path_18" data-name="Path 18" d="M209.116,515.7l24.5-2.611a1.584,1.584,0,0,1,1.645,1.01l8.767,23.033a1.58,1.58,0,0,1-1.414,2.14l-24.329,1a1.58,1.58,0,0,1-1.523-.97l-8.919-21.415a1.584,1.584,0,0,1,1.275-2.184Z" transform="translate(-207.719 -481.374)" fill="#a83f3f"/>
          <path id="Path_19" data-name="Path 19" d="M242.021,541.887a1.007,1.007,0,0,1,.944-1.488A2.354,2.354,0,0,1,245,541.887a1.007,1.007,0,0,1-.944,1.488A2.354,2.354,0,0,1,242.021,541.887Z" transform="translate(-227.041 -496.808)" fill="#9e332e"/>
          <path id="Path_20" data-name="Path 20" d="M212.542,523.159a.5.5,0,0,1,.465-.731,1.157,1.157,0,0,1,1,.731.5.5,0,0,1-.465.731A1.157,1.157,0,0,1,212.542,523.159Z" transform="translate(-210.411 -486.655)" fill="#9e332e"/>
          <path id="Path_21" data-name="Path 21" d="M334.3,540.347s-33.936,12.5-39.057,12.244c-3.3-.166-30.707-9.8-30.707-9.8s-2.032-3.128-4.242-3.777c0,0-3.915-1.788-5.012-2.123s-.87,0-.557,1.062a3.863,3.863,0,0,0,1.353,1.514c-1.871.515-3.724,1.214-4.586,1.38-1.449.278-5.569,1.614-4.351,3.619s6.9,2.449,9.357,2.005,5.569.979,5.569.979,26.679,17.146,34.014,17.064c14.479-.166,38.914-9.054,41.672-10.8S342.309,542.087,334.3,540.347Z" transform="translate(-229.865 -494.753)" fill="#fdb5b4"/>
          <path id="Path_22" data-name="Path 22" d="M216.609,540.683s2.458-3.885,3.262-4.046c2.449-.482,2.449,2.741,1.932,4.825-.557,2.232-2.445,4.351-2.967,4.155S216.03,542.724,216.609,540.683Z" transform="translate(-212.689 -494.655)" fill="#fdb5b4"/>
          <path id="Path_23" data-name="Path 23" d="M216.441,547.77A6.524,6.524,0,0,0,219.8,554.4Z" transform="translate(-212.612 -500.972)" fill="#fdb5b4"/>
          <path id="Path_24" data-name="Path 24" d="M379.66,510.3s1.459-.579,5.569-.244c0,0-.217,1.6-3.246,1.74a2.415,2.415,0,0,1-2.323-1.5Z" transform="translate(-304.853 -479.606)" fill="#fff"/>
          <path id="Path_25" data-name="Path 25" d="M407.54,550.1s3.046,9.615,13.487,11.8c0,0,17.224-5.308,8.649-17.042C429.659,544.861,421.179,538.562,407.54,550.1Z" transform="translate(-320.603 -498.359)" fill="#a83f3f"/>
        </g>
        <path id="Path_26" data-name="Path 26" d="M382.217,162.364c0-.97,0-1.967.044-2.937a81.007,81.007,0,0,1,3.672-21.24c-1.814.065-3.564.172-5.247.278a82.666,82.666,0,0,0-3.193,17.96c-.131,1.814-.2,3.629-.217,5.46v.474c0,1.836.065,3.672.172,5.482,1.662.779,3.368,1.51,5.16,2.245-.172-1.74-.3-3.48-.343-5.221C382.239,164.031,382.217,163.208,382.217,162.364Zm158.45-33.091A85.16,85.16,0,0,0,429.209,84.025c-1.253.539-2.506,1.1-3.711,1.683-2.005.97-3.994,2.005-5.9,3.128a83.6,83.6,0,0,0-17.4,13.426c-1.1,1.079-2.175,2.2-3.194,3.368-1.3,1.422-2.528,2.919-3.711,4.425a85.626,85.626,0,0,0-5.268,7.536c-.9,1.445-1.74,2.937-2.567,4.425-1.275,2.354-2.419,4.786-3.48,7.275-.8,1.879-1.51,3.755-2.175,5.656-.409,1.166-.779,2.332-1.123,3.52a82.672,82.672,0,0,0-3.193,17.96c-.131,1.814-.2,3.629-.217,5.46v.474c0,1.836.065,3.672.172,5.482.086,1.488.24,2.981.409,4.464a83.158,83.158,0,0,0,6.1,23.142,85.057,85.057,0,0,0,156.362.805c.109-.258.235-.539.343-.8.474-1.123.926-2.245,1.34-3.368a85.187,85.187,0,0,0-1.34-62.82Zm-4.49,64.156a.12.12,0,0,1-.044.109c-.539,1.253-1.1,2.5-1.706,3.733a80.158,80.158,0,0,1-145.928-3.73,78.728,78.728,0,0,1-5.352-19.082c-.24-1.445-.409-2.893-.539-4.351-.172-1.74-.3-3.48-.343-5.221,0-.844-.044-1.662-.044-2.506,0-.97,0-1.967.044-2.937a81.005,81.005,0,0,1,3.672-21.24c.366-1.166.757-2.31,1.188-3.454s.87-2.375,1.384-3.541c.713-1.641,1.445-3.262,2.245-4.834s1.553-2.981,2.4-4.425a80.416,80.416,0,0,1,8.062-11.39c1.253-1.466,2.545-2.893,3.915-4.273l.561-.561a80.118,80.118,0,0,1,20.625-14.943c1.575-.8,3.172-1.532,4.812-2.223.435-.2.871-.366,1.3-.539A80.158,80.158,0,0,1,536.177,193.428Z" transform="translate(-213.129 -43.692)" fill="#93b3f4"/>
        <path id="Path_27" data-name="Path 27" d="M520.9,254.055l-6.583-.152c2.114,2.741,2.611,5.268,1.275,7.4s-4.464,3.972-9.175,5.329a53.427,53.427,0,0,1-5.83,1.34,132.59,132.59,0,0,1-21.349,1.74c-21.24.258-47.624-2.632-74.258-8.1a360.791,360.791,0,0,1-48.4-13.253c-2.114-.757-4.168-1.531-6.13-2.31-1.166-.435-2.31-.927-3.434-1.4-1.792-.735-3.48-1.466-5.16-2.245-1.166-.515-2.289-1.058-3.389-1.6-15.306-7.469-22.3-14.68-19.17-19.8,2.528-4.146,11.721-6.961,25.8-7.984,1.683-.109,3.434-.217,5.247-.278.366-1.166.757-2.31,1.188-3.454-1.836.044-3.606.13-5.312.217-17.746,1.058-27.244,4.181-30.7,9.837-4.016,6.583,1.466,15.419,19.017,24.011,2.419,1.188,5.007,2.354,7.726,3.52,1.706.713,3.48,1.422,5.291,2.136l2.528.97q3.107,1.168,6.37,2.31a377.5,377.5,0,0,0,46.583,12.522c23.855,4.877,47.559,7.771,67.828,8.266,2.981.086,5.874.086,8.68.065a154.343,154.343,0,0,0,19.3-1.3c2.093-.278,4.059-.627,5.9-1.014,8.658-1.793,14.357-4.6,16.624-8.31C522.929,259.929,522.731,257.079,520.9,254.055Z" transform="translate(-177.537 -118.241)" fill="#93b3f4"/>
        <path id="Path_28" data-name="Path 28" d="M520.89,182.681a4.629,4.629,0,0,1-.265.435c-2.611,4.134-8.423,6.267-16.594,6.267a67.382,67.382,0,0,1-13.248-1.479c-16.1-3.262-35.08-11.451-53.514-23.059-18.114-11.418-33.5-24.756-43.39-37.643l-.509-.67q-1.41-1.866-2.611-3.681c-7.222-10.721-9.393-19.813-5.935-25.3,2.611-4.134,8.423-6.267,16.593-6.267a67.413,67.413,0,0,1,13.248,1.479q2.785.566,5.682,1.3,3.3.87,6.713,1.974,2.367-1.2,4.83-2.232c.435-.183.871-.366,1.3-.539q-3.533-1.227-6.97-2.289c-3.659-1.116-7.222-2.032-10.66-2.728C398.216,84.731,385.9,87.163,380.9,95.1c-4.759,7.555-2.175,18.922,7.279,32.193q.722,1.018,1.5,2.045.87,1.153,1.8,2.31c10.242,12.8,25.513,25.9,43.334,37.13,18.891,11.9,38.443,20.314,55.054,23.685a71.793,71.793,0,0,0,14.153,1.575c9.907,0,17.007-2.859,20.51-8.428a14.554,14.554,0,0,0,1.41-2.919Z" transform="translate(-213.867 -48.973)" fill="#93b3f4"/>
        <path id="Path_29" data-name="Path 29" d="M489.392,247.54a8.44,8.44,0,0,1-2.884-.5c-14.588-5.291-7.831-48.45,5.908-86.371,12.743-35.093,33.274-70.6,47.95-70.6a8.442,8.442,0,0,1,2.884.5c8.31,3.015,8.815,17.882,7.775,29.82-1.388,15.959-6.248,36.042-13.687,56.559C524.62,212.018,504.063,247.54,489.392,247.54ZM540.365,94.582c-9.228,0-28.567,25.848-43.712,67.606-7.309,20.148-12.078,39.827-13.435,55.4-1.459,16.759,1.536,24,4.825,25.2a3.889,3.889,0,0,0,1.349.227c9.228,0,28.567-25.848,43.712-67.606,7.3-20.148,12.082-39.823,13.431-55.4,1.459-16.759-1.536-24-4.825-25.2a3.915,3.915,0,0,0-1.344-.227Z" transform="translate(-270.219 -50.895)" fill="#93b3f4"/>
        <path id="Path_30" data-name="Path 30" d="M562.629,169.237a196.979,196.979,0,0,1-44.352-4.62c-15.854-3.681-29.485-9.572-40.515-17.455-18.982-13.6-23.647-28.384-23.834-29.007l4.307-1.3c.044.139,4.55,14.179,22.463,26.883,16.646,11.808,48.576,24.856,106.158,19.935l.383,4.49Q574.476,169.237,562.629,169.237Z" transform="translate(-256.437 -66.019)" fill="#93b3f4"/>
        <path id="Path_31" data-name="Path 31" d="M510.442,378.666a223.811,223.811,0,0,0-83.186-38.631c-22.219-5.055-37.094-4.582-37.242-4.573l-.148-4.486c.627-.021,15.619-.5,38.4,4.686a228.181,228.181,0,0,1,84.874,39.413Z" transform="translate(-220.246 -186.971)" fill="#93b3f4"/>
        <path id="Path_32" data-name="Path 32" d="M1831.437,803.458a17.78,17.78,0,0,1-17.777,17.777H1668.8V786.76h145.94a16.672,16.672,0,0,1,16.694,16.7Z" transform="translate(-942.747 -444.468)" fill="#fc9796"/>
        <path id="Path_33" data-name="Path 33" d="M1494.272,803.807a17.378,17.378,0,0,1-5.047,12.276l-.053.052a17.376,17.376,0,0,1-12.33,5.1H1312.26V786.76h164.968a17.046,17.046,0,0,1,17.045,17.045Z" transform="translate(-741.329 -444.468)" fill="#c0ccea"/>
        <path id="Path_34" data-name="Path 34" d="M1496.967,856.73a2.581,2.581,0,0,1-2.575,2.58H1295.425a2.58,2.58,0,0,1,0-5.16H1494.4a2.581,2.581,0,0,1,2.57,2.581Z" transform="translate(-730.363 -482.537)" fill="#fb8a82"/>
        <path id="Path_35" data-name="Path 35" d="M1496.967,789.33a2.58,2.58,0,0,1-2.575,2.58H1295.425a2.58,2.58,0,0,1,0-5.16H1494.4a2.581,2.581,0,0,1,2.57,2.581Z" transform="translate(-730.363 -444.462)" fill="#fb8a82"/>
        <path id="Path_36" data-name="Path 36" d="M1312.26,826.38l22.067.583-22.067.348Z" transform="translate(-741.329 -466.85)" fill="#6d89cf"/>
        <path id="Path_37" data-name="Path 37" d="M1312.26,838.82l52.5.579-52.5.348Z" transform="translate(-741.329 -473.878)" fill="#6d89cf"/>
        <path id="Path_38" data-name="Path 38" d="M1817.427,786.973,1769.8,821.235h-101V786.76h145.94a16.867,16.867,0,0,1,2.687.213Z" transform="translate(-942.747 -444.468)" fill="#fb8a82"/>
        <path id="Path_39" data-name="Path 39" d="M568.548,813.36H472.07V772.82h97.757a19.633,19.633,0,0,1,19.631,19.649v.008A20.91,20.91,0,0,1,568.548,813.36Z" transform="translate(-266.684 -436.593)" fill="#3662c1"/>
        <path id="Path_40" data-name="Path 40" d="M214.73,772.82H326.057A20.044,20.044,0,0,1,346.1,792.863h0a20.5,20.5,0,0,1-20.488,20.5H214.73Z" transform="translate(-121.306 -436.593)" fill="#c0ccea"/>
        <path id="Path_41" data-name="Path 41" d="M345.007,858.1H203.736a3.045,3.045,0,0,1-3.046-3.045h0a3.046,3.046,0,0,1,3.046-3.05H345.007a3.046,3.046,0,0,1,3.046,3.046h0a3.046,3.046,0,0,1-3.046,3.049Z" transform="translate(-113.375 -481.323)" fill="#3662c1"/>
        <path id="Path_42" data-name="Path 42" d="M345.007,778.851H203.736a3.046,3.046,0,0,1-3.046-3.046h0a3.046,3.046,0,0,1,3.046-3.046H345.007a3.046,3.046,0,0,1,3.046,3.046h0a3.046,3.046,0,0,1-3.046,3.046Z" transform="translate(-113.375 -436.558)" fill="#3662c1"/>
        <path id="Path_43" data-name="Path 43" d="M214.73,819.42l15.928.679-15.928.414Z" transform="translate(-121.306 -462.918)" fill="#6d89cf"/>
        <path id="Path_44" data-name="Path 44" d="M214.73,834.04l37.891.679-37.891.414Z" transform="translate(-121.306 -471.177)" fill="#6d89cf"/>
        <path id="Path_45" data-name="Path 45" d="M810.724,435.07,795.932,610.918s-1.545,10.66,6.378,10.677c13.049.03,64.887,0,64.887,0s-9.811-2.219-9.694-7.211c.139-5.886,17.285-180.991,17.285-180.991Z" transform="translate(-449.573 -244.84)" fill="#fa7269"/>
        <path id="Path_46" data-name="Path 46" d="M876.952,614.283c-2.562,0-52.088.161-64.787,0-5.535-.07-6.5-4.921-6.548-8.058a15.753,15.753,0,0,1,.172-2.611l.383-4.569.979-11.651.868-10.29,1.116-13.226.936-11.16L820.577,427.76l64.074-1.662s-7.222,73.275-12.33,126.607c-.57,5.943-1.116,11.643-1.614,16.968q-.244,2.55-.47,4.979c-.474,5.047-.9,9.68-1.288,13.774-.2,2.175-.383,4.159-.549,6-.652,7.191-1.035,11.786-1.04,12.661a7.39,7.39,0,0,0,.126,1.423C868.537,614.1,875.985,614.283,876.952,614.283Z" transform="translate(-455.112 -240.717)" fill="#fc9492"/>
        <path id="Path_47" data-name="Path 47" d="M472.45,217.31l36.024,144.7,4.934,19.818,16.774,67.4H841.9L780.057,217.31Z" transform="translate(-266.899 -122.771)" fill="#fc9f9d"/>
        <path id="Path_48" data-name="Path 48" d="M465.965,217.31l-4.995,1.662L517.06,454.26l6.639-5.03Z" transform="translate(-260.414 -122.771)" fill="#fc9492"/>
        <path id="Path_49" data-name="Path 49" d="M589.89,755.4h309.8l8.554-5.03H596.534Z" transform="translate(-333.244 -423.91)" fill="#fa7269"/>
        <rect id="Rectangle_3" data-name="Rectangle 3" width="67.076" height="3.189" transform="translate(432.517 376.824) rotate(180)" fill="#fc9f9d"/>
        <path id="Path_50" data-name="Path 50" d="M826.151,406.494,775.57,220.378H471.3V217.31H779.4L829.82,406.079Z" transform="translate(-266.249 -122.771)" fill="#fc9f9d"/>
        <path id="Path_51" data-name="Path 51" d="M872.57,761.93l-.348,2.436L809.14,777.114l.866-10.294.413-4.893Z" transform="translate(-457.104 -430.44)" fill="#fa7269"/>
        <path id="Path_52" data-name="Path 52" d="M876.956,832.857c-2.563,0-52.087.161-64.787,0-5.535-.069-6.5-4.921-6.548-8.057L868.4,813c-.652,7.191-1.035,11.786-1.04,12.661a7.388,7.388,0,0,0,.126,1.422C868.541,832.674,875.989,832.857,876.956,832.857Z" transform="translate(-455.115 -459.291)" fill="#fb928b"/>
        <path id="Path_53" data-name="Path 53" d="M720.3,615.9,583.366,662.852l-16.776-67.4Z" transform="translate(-320.081 -336.392)" fill="#fb928b"/>
        <path id="Path_54" data-name="Path 54" d="M472.45,217.31H780.057L829.969,403.7h-312.7Z" transform="translate(-266.899 -122.771)" fill="#fff"/>
        <path id="Path_55" data-name="Path 55" d="M960.682,689.137a10.511,10.511,0,0,0-9.885-8.266c-4.573,0-7.555,3.707-6.669,8.266a10.541,10.541,0,0,0,9.885,8.266C958.585,697.4,961.57,693.709,960.682,689.137Z" transform="translate(-533.273 -384.648)" fill="#fa7269"/>
        <path id="Path_56" data-name="Path 56" d="M832.006,408.586H543.99L511.368,278.651l-2.5-9.963-2.137-8.5L501.74,240.26H785.6l5.494,19.927,2.345,8.5,2.747,9.963Z" transform="translate(-283.445 -135.736)" fill="#dde8fd"/>
        <path id="Path_57" data-name="Path 57" d="M791.1,260.187H506.739l-5-19.927H785.6Z" transform="translate(-283.445 -135.736)" fill="#97b6f4"/>
        <path id="Path_58" data-name="Path 58" d="M528.627,257.763a1.889,1.889,0,0,1,1.871-2.49,3.4,3.4,0,0,1,3.111,2.49,1.889,1.889,0,0,1-1.871,2.49A3.4,3.4,0,0,1,528.627,257.763Z" transform="translate(-298.589 -144.216)" fill="#dde8fd"/>
        <path id="Path_59" data-name="Path 59" d="M547.647,257.763a1.889,1.889,0,0,1,1.871-2.49,3.4,3.4,0,0,1,3.111,2.49,1.889,1.889,0,0,1-1.871,2.49A3.4,3.4,0,0,1,547.647,257.763Z" transform="translate(-309.334 -144.216)" fill="#dde8fd"/>
        <path id="Path_60" data-name="Path 60" d="M568.137,257.763a1.889,1.889,0,0,1,1.871-2.49,3.4,3.4,0,0,1,3.111,2.49,1.889,1.889,0,0,1-1.871,2.49A3.4,3.4,0,0,1,568.137,257.763Z" transform="translate(-320.91 -144.216)" fill="#dde8fd"/>
        <ellipse id="Ellipse_1" data-name="Ellipse 1" cx="10.751" cy="10.412" rx="10.751" ry="10.412" transform="translate(266.736 242.591)" fill="#fff"/>
        <path id="Path_61" data-name="Path 61" d="M633.172,567.024l6.175,5.343a1.149,1.149,0,0,1,0,1.74l-6.1,5.121a1.218,1.218,0,0,1-2.01-.87l-.1-10.464a1.218,1.218,0,0,1,2.032-.87Z" transform="translate(-356.546 -320.157)" fill="#dde8fd"/>
        <path id="Path_62" data-name="Path 62" d="M905.13,581.764a1.975,1.975,0,0,1-1.962,1.963H683.773a1.962,1.962,0,0,1,0-3.916h219.4a1.975,1.975,0,0,1,1.957,1.953Z" transform="translate(-385.246 -327.557)" fill="#97b6f4"/>
        <path id="Path_63" data-name="Path 63" d="M708.194,579.79v3.915H683.773a1.962,1.962,0,0,1,0-3.916Z" transform="translate(-385.246 -327.545)" fill="#fff"/>
        <path id="Path_64" data-name="Path 64" d="M848.646,411.418H657.914l-21.6-78.066-1.653-5.987-1.414-5.1L629.93,310.29H817.917l3.637,11.973,1.545,5.1,1.823,5.987Z" transform="translate(-355.863 -175.298)" fill="#97b6f4"/>
        <path id="Path_65" data-name="Path 65" d="M972.239,366.668H909.532L902.427,341l-.543-1.974-.464-1.674-1.092-3.933h61.81l1.195,3.933.509,1.679.6,1.974Z" transform="translate(-508.619 -188.364)" fill="#dde8fd"/>
        <path id="Path_66" data-name="Path 66" d="M948.414,380.249H926.669l-2.463-8.9-.187-.687-.161-.579-.379-1.366h21.432l.413,1.366.179.579.2.687Z" transform="translate(-521.697 -208.306)" fill="#97b6f4" opacity="0.6"/>
        <path id="Path_67" data-name="Path 67" d="M1012.04,380.249H990.3l-2.463-8.9-.192-.687-.161-.579-.374-1.366h21.427l.418,1.366.172.579.209.687Z" transform="translate(-557.643 -208.306)" fill="#97b6f4" opacity="0.6"/>
        <path id="Path_68" data-name="Path 68" d="M956.271,343.181H916.536a.566.566,0,0,1-.566-.566h0a.57.57,0,0,1,.566-.566h39.739a.57.57,0,0,1,.566.566h0a.566.566,0,0,1-.57.566Z" transform="translate(-517.454 -193.24)" fill="#97b6f4"/>
        <path id="Path_69" data-name="Path 69" d="M959.659,350.2H919.912a.566.566,0,0,1-.566-.566h0a.566.566,0,0,1,.566-.566h39.747a.57.57,0,0,1,.566.566h0A.57.57,0,0,1,959.659,350.2Z" transform="translate(-519.363 -197.206)" fill="#97b6f4"/>
        <path id="Path_70" data-name="Path 70" d="M968.859,360.231H924.12a.64.64,0,0,1-.64-.635h0a.64.64,0,0,1,.64-.635h44.739a.64.64,0,0,1,.635.635h0A.64.64,0,0,1,968.859,360.231Z" transform="translate(-521.697 -202.793)" fill="#97b6f4"/>
        <path id="Path_71" data-name="Path 71" d="M999.174,458.917H936.462l-7.1-25.668-.549-1.974-.461-1.675-1.092-3.938h61.81l1.2,3.938.509,1.675.6,1.974Z" transform="translate(-523.832 -240.478)" fill="#dde8fd"/>
        <path id="Path_72" data-name="Path 72" d="M975.344,472.5H953.6l-2.463-8.9-.191-.679-.161-.583-.379-1.366h21.432l.414,1.366.179.583.209.679Z" transform="translate(-536.911 -260.42)" fill="#97b6f4" opacity="0.6"/>
        <path id="Path_73" data-name="Path 73" d="M1038.969,472.5h-21.745l-2.462-8.9-.187-.679-.161-.583-.379-1.366h21.432l.413,1.366.172.583.208.679Z" transform="translate(-572.856 -260.42)" fill="#97b6f4" opacity="0.6"/>
        <path id="Path_74" data-name="Path 74" d="M983.205,435.431H943.466a.57.57,0,0,1-.566-.566h0a.57.57,0,0,1,.566-.566h39.739a.566.566,0,0,1,.566.566h0a.57.57,0,0,1-.566.566Z" transform="translate(-532.668 -245.354)" fill="#97b6f4"/>
        <path id="Path_75" data-name="Path 75" d="M986.585,442.461H946.846a.57.57,0,0,1-.566-.566h0a.566.566,0,0,1,.566-.566h39.739a.566.566,0,0,1,.566.566h0a.566.566,0,0,1-.566.566Z" transform="translate(-534.577 -249.325)" fill="#97b6f4"/>
        <path id="Path_76" data-name="Path 76" d="M989.055,449.531H949.316a.566.566,0,0,1-.566-.566h0a.57.57,0,0,1,.566-.566h39.739a.57.57,0,0,1,.566.566h0A.566.566,0,0,1,989.055,449.531Z" transform="translate(-535.973 -253.32)" fill="#97b6f4"/>
        <path id="Path_77" data-name="Path 77" d="M296.584,816.069s-3.48,1.662-4.612,4.4A4.485,4.485,0,0,0,291.61,822c-.191,3.633,0,11.855,0,11.855l-10.229-4.11-10.2,4.111V822.705a7.109,7.109,0,0,1,2.5-5.5,4.472,4.472,0,0,1,2.828-1.14Z" transform="translate(-153.195 -461.025)" fill="#fc9796"/>
        <path id="Path_78" data-name="Path 78" d="M296.96,816.07s-3.48,1.662-4.612,4.4l-20.5.165a6.1,6.1,0,0,1,5.034-4.559Z" transform="translate(-153.574 -461.026)" fill="#fb8a82"/>
        <path id="Path_79" data-name="Path 79" d="M0,0H117.992a27.053,27.053,0,0,1,27.053,27.053h0a25.4,25.4,0,0,1-25.4,25.4H0Z" transform="translate(765.041 342.597) rotate(180)" fill="#a83f3f"/>
        <path id="Path_80" data-name="Path 80" d="M1729.8,719.351h135.8V666.89H1729.2a25.934,25.934,0,0,0-25.934,25.934h0a26.539,26.539,0,0,0,26.527,26.527Z" transform="translate(-962.219 -376.75)" fill="#c0ccea"/>
        <path id="Path_81" data-name="Path 81" d="M1679.165,777.291h174.2a3.916,3.916,0,0,0,3.915-3.915h0a3.915,3.915,0,0,0-3.915-3.915h-174.2a3.915,3.915,0,0,0-3.916,3.915h0a3.916,3.916,0,0,0,3.915,3.915Z" transform="translate(-946.39 -434.695)" fill="#a83f3f"/>
        <path id="Path_82" data-name="Path 82" d="M1679.165,674.752h174.2a3.915,3.915,0,0,0,3.915-3.915h0a3.915,3.915,0,0,0-3.915-3.915h-174.2a3.916,3.916,0,0,0-3.916,3.915h0a3.916,3.916,0,0,0,3.915,3.915Z" transform="translate(-946.39 -376.767)" fill="#a83f3f"/>
        <path id="Path_83" data-name="Path 83" d="M2050.806,727.17l-19.676.884,19.678.531Z" transform="translate(-1147.436 -410.803)" fill="#6d89cf"/>
        <path id="Path_84" data-name="Path 84" d="M2015.571,699.42l-46.818.883,46.818.531Z" transform="translate(-1112.196 -395.127)" fill="#6d89cf"/>
        <path id="Path_85" data-name="Path 85" d="M1969.86,701s3.09,1.662,4.111,4.4a4.923,4.923,0,0,1,.322,1.532c.172,3.633,0,11.855,0,11.855l9.137-4.111,9.1,4.111V707.661a7.5,7.5,0,0,0-2.232-5.5,3.772,3.772,0,0,0-2.539-1.161Z" transform="translate(-1112.823 -396.019)" fill="#a83f3f"/>
        <path id="Path_86" data-name="Path 86" d="M1969.86,701s3.09,1.662,4.111,4.4l18.273.161s-.718-3.915-4.49-4.559Z" transform="translate(-1112.823 -396.019)" fill="#a03732"/>
        <path id="Path_87" data-name="Path 87" d="M1356.082,532.14s-6.524,3.7-8.34,3.7-8.984-1.384-10.981-.366-5.608,5.125-6.287,6.465c-1.218,2.411,4.908,1.344,7.8-.709a1.828,1.828,0,0,1,1.449-.3c1.5.326,4.616.892,6.117.335,2.023-.749,12.678-1.58,12.678-1.58Z" transform="translate(-751.529 -300.626)" fill="#fc9593"/>
        <path id="Path_88" data-name="Path 88" d="M1336.518,834.965s-.7,11.312-2.889,11.477h-11.1l-13.8-.078s.091-3.324,4.121-4.029,10.786-3.537,13.231-8.871C1328.654,827.877,1336.518,834.965,1336.518,834.965Z" transform="translate(-739.334 -469.64)" fill="#060632"/>
        <path id="Path_89" data-name="Path 89" d="M1430.161,407.44s-6.735,48.006-17.942,52.309c-5.516,2.123-29.907,6.93-37.12,7.4,0,0-1.767-1.435-1.336-7.27,0,0,25.552-9.38,29.188-14.483,5.4-7.592-3.354-31.021,3.424-38.152S1424.572,397.063,1430.161,407.44Z" transform="translate(-776.039 -226.39)" fill="#ed6966"/>
        <path id="Path_90" data-name="Path 90" d="M1410.029,612.024a84.159,84.159,0,0,1-6.6,9.443c-7.262,9.162-15.162,16.72-16.533,23.865a32.366,32.366,0,0,1-1.275,4.573c-.574,1.636-1.3,3.354-2.106,5.134a158.433,158.433,0,0,1-12.286,21.006c-7.954,11.782-15.427,21.615-15.427,21.615l-13.713-.583c.549-1.374,6.524-17.642,14.531-37.525l10.037-24.934,1.327-3.3c1.018-2.532,2.024-5.03,3-7.458l13.488-33.531s30.02-11.373,33.144-4C1420.193,592.4,1418.09,598.349,1410.029,612.024Z" transform="translate(-758.18 -329.833)" fill="#93b3f4"/>
        <path id="Path_91" data-name="Path 91" d="M1436.255,765.41s9.537,6.13,8.61,8.119c-.122.265-5.395,9.707-5.395,9.707l-6.8,12.019s-2.859-1.7-1.506-5.565,2.175-11.142-1.3-15.876C1426.229,768.821,1436.255,765.41,1436.255,765.41Z" transform="translate(-807.319 -432.406)" fill="#060632"/>
        <path id="Path_92" data-name="Path 92" d="M1369.466,675.432s5.96-5.256,7.014-9.114c0,0-24.56-29.428-29.889-36.024-.244-.3-.183-.635.139-1,4.025-4.534,48.728-13.753,54.55-22.841a28.162,28.162,0,0,0,3.772-8.7,20.919,20.919,0,0,0,.278-9.376l-44.63-1.3s-37.16,23.137-41.367,38.914S1369.466,675.432,1369.466,675.432Z" transform="translate(-745.191 -331.658)" fill="#c7d8fb"/>
        <path id="Path_93" data-name="Path 93" d="M1382.61,631.943c4.025-4.534,48.728-13.753,54.55-22.841a28.165,28.165,0,0,0,3.772-8.7v-5.656l-18.972-2.985s-5.378,16.533-21.318,22.759C1385.735,620.344,1382.9,630.66,1382.61,631.943Z" transform="translate(-781.071 -334.307)" fill="#bed2fa"/>
        <path id="Path_94" data-name="Path 94" d="M1442.79,382.152c9.028,2.332,24-6.03,24-6.03a22.2,22.2,0,0,1-7.967-12.486c-.109-.435-.209-.87-.3-1.331l-4.636-.983-6.9,6.181a59.361,59.361,0,0,0,1.018,6.961q.222,1.153.515,2.476a21.271,21.271,0,0,0-5.739,5.217Z" transform="translate(-815.068 -204.126)" fill="#fc9593"/>
        <path id="Path_95" data-name="Path 95" d="M1459.592,434.18c-1.306,17.4.409,43.847-1.058,48.428-1.266,3.949-15.693,1.6-21.45.282-2.132-.488-4.712-1.188-7.4-2.01-7.435-2.3-15.538-5.59-16.411-8.032a2.039,2.039,0,0,1-.078-.282,2.225,2.225,0,0,1,0-1.022c.292-1.244,1.405-2.611,1.54-5.656.148-3.442.126-7.492.252-11.847a11.772,11.772,0,0,1,.065-1.514v-.457c.126-4.86.379-9.963.675-15.032.187-3.176.4-6.33.652-9.35.648-7.792,1.523-14.718,2.68-19.1,1.889-7.14,6.061-11.8,9.854-15.228l2.747-2.354a15.871,15.871,0,0,0,9.958-1.3c3.546-1.683,4.786-2.889,5.386-2.436C1455.239,393.561,1461.128,412.918,1459.592,434.18Z" transform="translate(-798.319 -218.729)" fill="#fa7269"/>
        <path id="Path_96" data-name="Path 96" d="M1429.812,515.438c-7.435-2.3-15.538-5.59-16.411-8.032a2.074,2.074,0,0,1-.078-.282V506.1c.292-1.244,1.405-2.611,1.54-5.656.148-3.442.126-7.492.252-11.847a11.772,11.772,0,0,1,.065-1.514v-.457l30.068-38.288S1465.481,490.395,1429.812,515.438Z" transform="translate(-798.42 -253.285)" fill="#ed6966"/>
        <path id="Path_97" data-name="Path 97" d="M1452.45,367.479a59.357,59.357,0,0,0,1.018,6.961c6.735-2.175,9.786-8.266,10.807-10.838-.109-.435-.209-.87-.3-1.331l-4.636-.983Z" transform="translate(-820.525 -204.109)" fill="#ea8888"/>
        <path id="Path_98" data-name="Path 98" d="M1439.8,350.554s14.68-2.449,13.018-11.573-.9-15.58-10.342-14.4-10.629,4.99-10.812,8.171S1435.935,350.958,1439.8,350.554Z" transform="translate(-808.779 -183.292)" fill="#fc9593"/>
        <rect id="Rectangle_4" data-name="Rectangle 4" width="1.362" height="35.659" transform="translate(560.894 211.863) rotate(-17.99)" fill="#3a49cd"/>
        <rect id="Rectangle_5" data-name="Rectangle 5" width="37.416" height="2.241" transform="translate(571.851 243.533) rotate(-1.22)" fill="#3a49cd"/>
        <path id="Path_99" data-name="Path 99" d="M1364.944,558.271s-12.019,3.168-16.533,2.833-8.266-2.476-8.823-3.594-1.74-3.1,1.3-2.737,7.258,1.018,7.4.435-2.5-.535-2.5-.535-.8-1.157.2-1.2,3.916-.835,5.007-.292,2.089,2.545,2.88,2.462,10.059-4.172,10.059-4.172Z" transform="translate(-756.374 -311.552)" fill="#fc9593"/>
        <path id="Path_100" data-name="Path 100" d="M1431.351,413.42s-1.422,48.459-12.065,53.95c-5.251,2.714-28.963,10.185-36.081,11.46,0,0-1.914-1.231-2.132-7.079,0,0,24.364-12.143,27.41-17.612,4.534-8.14-6.753-30.455-.8-38.288S1424.646,403.722,1431.351,413.42Z" transform="translate(-780.202 -230.4)" fill="#fa7269"/>
        <path id="Path_101" data-name="Path 101" d="M1445.38,334.8s.172-3.128-1.762-4.921c0,0,.675-3.137-.57-3.655s-1.5,2.119-2.071,1.706a12.684,12.684,0,0,1-4.19-5.278c-1.088-2.9-11.029.614-12.182,1.131s-4.881-1.392-5.608-2.945a21.774,21.774,0,0,0,3-2.9c.931-1.24,7.448-9.619,16.533-7.239s10.346,6.726,9.828,10.442S1449.106,333.551,1445.38,334.8Z" transform="translate(-801.628 -175.29)" fill="#120e59"/>
        <path id="Path_102" data-name="Path 102" d="M1695.124,459.08s4.66,6.9,7.323,21.4c2.327,12.7,4.351,17.4,7.731,20.013s22.1,10.294,22.1,10.294l-1.4,3.28s-27.461-3.737-30.547-8.327-14.844-31.708-13.923-37.951S1695.124,459.08,1695.124,459.08Z" transform="translate(-952.663 -259.353)" fill="#fca2a1"/>
        <path id="Path_103" data-name="Path 103" d="M1859.123,782.634c-.248,2.68,3.48,3.328,7.8,3.545s3.015,1.1,8.928,2.175,8.288-.549,8.7-1.349c.383-.709-2.371-1.818-5.3-3.072l-1.109-.478c-3.3-1.449-5.151-4.412-7.726-7.157-2.436-2.611-4.751-10.921-4.751-10.921l-8.04-1.717s2.258,7.492,3.046,10.69c.461,1.879-.217,3.985-.822,5.58a10.522,10.522,0,0,0-.727,2.7Z" transform="translate(-1049.42 -431.418)" fill="#fdb5b4"/>
        <path id="Path_104" data-name="Path 104" d="M1868.839,807.314c4.316.218,3.015,1.1,8.928,2.175s8.289-.549,8.7-1.349c.383-.709-2.371-1.818-5.3-3.072l-.048.052a16.856,16.856,0,0,1-8.962.109c-3.916-1.062-7.7-3.4-10.4-4.159a10.532,10.532,0,0,0-.74,2.706C1860.786,806.448,1864.512,807.1,1868.839,807.314Z" transform="translate(-1051.329 -452.551)" fill="#b15252"/>
        <path id="Path_105" data-name="Path 105" d="M1663.38,580.245s53.44-4.024,63.521,2.327,26.174,80.306,26.174,80.306a6.6,6.6,0,0,1-3.219,1.04c-2.066.222-6.626-.992-6.626-.992s-23.19-33.091-24.821-41.428-1.235-15.776-4.956-15.976-50.086,5.656-57.1-6.718-1.214-24.586-1.214-24.586Z" transform="translate(-933.756 -324.398)" fill="#060632"/>
        <path id="Path_106" data-name="Path 106" d="M1812.122,802.364c-.248,2.68,3.48,3.328,7.8,3.545s3.015,1.1,8.928,2.175,8.289-.549,8.7-1.349c.383-.709-2.371-1.818-5.3-3.072l-1.109-.478c-3.3-1.453-5.151-4.412-7.726-7.157-2.436-2.611-4.751-10.921-4.751-10.921l-8.045-1.717s2.258,7.492,3.046,10.69c.461,1.879-.217,3.985-.822,5.58a10.523,10.523,0,0,0-.719,2.7Z" transform="translate(-1022.869 -442.564)" fill="#fdb5b4"/>
        <path id="Path_107" data-name="Path 107" d="M1821.839,827.044c4.32.213,3.015,1.1,8.928,2.175s8.289-.549,8.7-1.349c.383-.709-2.371-1.818-5.3-3.072l-.044.052a16.854,16.854,0,0,1-8.962.109c-3.916-1.062-7.7-3.4-10.4-4.159a10.533,10.533,0,0,0-.74,2.706C1813.787,826.173,1817.521,826.826,1821.839,827.044Z" transform="translate(-1024.782 -463.698)" fill="#b15252"/>
        <path id="Path_108" data-name="Path 108" d="M1633.306,595.68s47.473,2.245,57.282,8.984,23.059,81.268,23.059,81.268a6.6,6.6,0,0,1-3.262.913c-2.075.143-6.578-1.249-6.578-1.249s-21.884-33.97-23.19-42.363-.618-15.81-4.351-16.155-50.264,3.681-56.794-8.937S1633.306,595.68,1633.306,595.68Z" transform="translate(-914.151 -336.522)" fill="#0b0754"/>
        <path id="Path_109" data-name="Path 109" d="M1632.8,351.748a12.285,12.285,0,0,0-6.565-1.717,3.114,3.114,0,0,1,1.445-.574c-1.127-.244-3.742.713-3.742.713-15.423-7.157-19.469,15.989-19.5,21.427s-.4,11.664-8.632,16.015c-16.189,8.519-4.182,26.079-4.182,26.079.118.078,10.786,14.209,10.786,14.209-.109-4.4,17.264-27.745,28.28-33.936,2.815-3.606,4.172-10.216,4.277-10.731-.8,5.26-1.9,8.167-2.819,9.781C1641.6,385.372,1638.376,355.42,1632.8,351.748Z" transform="translate(-896.728 -197.06)" fill="#a83f3f"/>
        <path id="Path_110" data-name="Path 110" d="M1648.258,440.57a53.463,53.463,0,0,1,8.842,0,28.416,28.416,0,0,1,7.675,1.923c4.185,1.74,3.746,9.137-5.034,7.784S1647.649,442.769,1648.258,440.57Z" transform="translate(-931.102 -248.794)" fill="#fdb5b4"/>
        <path id="Path_111" data-name="Path 111" d="M1665.036,431.853c.052.026,1.253,6.374-4.494,6.117-3.772-.166-11.912-4.734-11.194-7.962.344-1.536,3.193-5.521,3.768-14.619l.687.183,11.552,3.1s-.515,3.667-.753,7.136C1664.4,428.7,1664.4,431.5,1665.036,431.853Z" transform="translate(-931.731 -234.672)" fill="#fdb5b4"/>
        <path id="Path_112" data-name="Path 112" d="M1671.186,418.907s-.515,3.667-.753,7.136c-6.524-.622-9.6-6.827-10.8-10.233Z" transform="translate(-937.567 -234.909)" fill="#fca2a1"/>
        <path id="Path_113" data-name="Path 113" d="M1652.3,382.022s-3.072-5.656-3.585-10.346c-.366-3.348,2.136-15.511,14.357-12.922a16.8,16.8,0,0,1,6.774,3.09c2.558,1.988,6.161,6.147,1.127,16.568l-1.362,3.541Z" transform="translate(-931.383 -202.474)" fill="#a83f3f"/>
        <path id="Path_114" data-name="Path 114" d="M1671.354,396.268s-15.515-.779-14.88-10.442-.944-16.259,8.988-16.168,11.612,3.915,12.182,7.17S1675.4,396.221,1671.354,396.268Z" transform="translate(-935.773 -208.836)" fill="#fdb5b4"/>
        <path id="Path_115" data-name="Path 115" d="M1666.216,367.318s-5,11.043-11.621,12.282-9.332-.692-9.332-.692a18.482,18.482,0,0,0,6.757-10.494S1663.374,361.714,1666.216,367.318Z" transform="translate(-929.449 -206.251)" fill="#a83f3f"/>
        <path id="Path_116" data-name="Path 116" d="M1690.86,370s3,2.741,3.606,5.251.618,7.592,2.106,7.518c0,0,3.711-7.483.409-12.078C1693.487,365.822,1690.86,370,1690.86,370Z" transform="translate(-955.209 -208.089)" fill="#a83f3f"/>
        <path id="Path_117" data-name="Path 117" d="M1662.406,505.673c-1.257,1.5-5.177,1.962-9.367,2.649-3.3.543-6.761,1.227-9.223,2.672-5.591,3.284-23.865,14.379-29.22,13.875-2.076-.2-1.689-4.159-.435-9.419,1.98-8.306,6.126-19.839,6.126-24.856,0-2.737.909-9.215,2.127-16.62l.3-1.8c2.4-14.4,5.739-31.378,5.739-31.378s3.715,8.11,10.955,8.11,5.556-6.181,5.556-6.181,6.6.779,8.167,2.458,5.521,8.95,6.3,10.929c0,0,.161,2.524-6.091,3.724a81.716,81.716,0,0,1,1.7,11.407c.135,3.372-2.3,13.923-3,20.483-.248,2.323-.283,4.146.1,4.979.483,1.062,2.045,2.114,3.824,3.15C1659.513,501.914,1663.9,503.89,1662.406,505.673Z" transform="translate(-911.298 -249.021)" fill="#0b0754"/>
        <path id="Path_118" data-name="Path 118" d="M1655.976,534.918c4.007,6.835-10.877,8.889-13.33,10.333-5.591,3.285-22.694,15.189-28.05,14.68-2.076-.2-1.689-4.159-.435-9.419,1.98-8.306,6.126-19.839,6.126-24.856,0-2.737.909-9.215,2.127-16.62l6.448-6.191s6.909,17.838,13.487,20.775a55.375,55.375,0,0,0,9.7,3.158c-.248,2.323-.282,4.146.1,4.979C1652.637,532.826,1654.2,533.883,1655.976,534.918Z" transform="translate(-911.298 -284.079)" fill="#060632"/>
        <rect id="Rectangle_6" data-name="Rectangle 6" width="14.949" height="1.767" transform="translate(752.776 255.904)" fill="#9e332e"/>
        <path id="Path_119" data-name="Path 119" d="M1757.28,563.216c.148-.583,13.744-21.936,13.744-21.936h30.255L1786.1,562.642Z" transform="translate(-992.731 -305.79)" fill="#9e332e"/>
        <path id="Path_120" data-name="Path 120" d="M1760.21,563.449c.143-.583,13.788-22.189,13.788-22.189h28.936L1788.5,563.449Z" transform="translate(-994.387 -305.778)" fill="#a83f3f"/>
        <path id="Path_121" data-name="Path 121" d="M1814.654,564.906a2.415,2.415,0,0,1-2.106,1.567,1.083,1.083,0,0,1-1.03-1.567,2.419,2.419,0,0,1,2.114-1.567,1.078,1.078,0,0,1,1.022,1.567Z" transform="translate(-1023.326 -318.252)" fill="#9e332e"/>
        <path id="Path_122" data-name="Path 122" d="M1669.69,503.137c-.871-.366-7.4.827-9.271,1.179-5.935-1.161-25.443-5.06-26.4-6.282-1.123-1.441-3.568-45.352-6.37-46.088,0,0-5.512-3.348-10.843,3s3.785,51.739,11.682,54.072c8.771,2.611,34.11-.435,34.11-.435h0c2.079.709,5.722,1.109,7.653,1.74,2.55.87,4.816.143,5.382-.87S1670.685,503.563,1669.69,503.137Z" transform="translate(-912.478 -254.825)" fill="#fdb5b4"/>
        <path id="Path_123" data-name="Path 123" d="M1623.872,440.81s-11.312,1.022-14.6,4.742-4.247,13.814-4.247,13.814,9.968,8.049,21.977,4.925Z" transform="translate(-906.716 -249.032)" fill="#0b0754"/>
        <path id="Path_124" data-name="Path 124" d="M962.721,868.3H1.279A1.3,1.3,0,0,1,0,867.019H0a1.3,1.3,0,0,1,1.279-1.279H962.721A1.3,1.3,0,0,1,964,867.019h0A1.3,1.3,0,0,1,962.721,868.3Z" transform="translate(0 -489.086)" fill="#0d0d38"/>
        <g id="Group_1-2" data-name="Group 1" transform="translate(274.067 134.992)" clip-path="url(#clip-path)">
          <path id="Path_125" data-name="Path 125" d="M901.06,389.308s1.058-4.185,2.819-4.407,4.416-1.34,4.973.07-4.216,8.7-6.113,6.888S901.06,389.308,901.06,389.308Z" transform="translate(-783.094 -352.084)" fill="#fdb5b4"/>
          <path id="Path_126" data-name="Path 126" d="M846.861,714.982a14.251,14.251,0,0,1,2.728,4.851.773.773,0,0,1-.766,1.052h-8.659a1.762,1.762,0,0,1-1.675-1.6c0-1.584.2-3.977,1.536-5.43C842.163,711.539,846.861,714.982,846.861,714.982Z" transform="translate(-747.751 -537.823)" fill="#060632"/>
          <path id="Path_127" data-name="Path 127" d="M887.76,708.855s2.645,8.018,4.229,8.131H909.74a4.786,4.786,0,0,0-3.807-2.91c-2.994-.5-8.314-2.506-11.06-6.287C891.989,703.834,887.76,708.855,887.76,708.855Z" transform="translate(-775.585 -533.989)" fill="#060632"/>
          <path id="Path_128" data-name="Path 128" d="M825.249,543.5c1.54,4.455,2.528,7.971,2.514,9.637-.044,7.458,14.7,41.128,14.7,41.128,4.751,2.015,10.189,0,10.189,0-1.623-4.686-10.586-46.435-15.345-71.91-2-10.694-3.359-18.177-3.359-18.177L807.92,501.24S819.906,528.032,825.249,543.5Z" transform="translate(-730.481 -418.163)" fill="#12123c"/>
          <path id="Path_129" data-name="Path 129" d="M807.92,501.24s11.986,26.792,17.329,42.259l12.056-21.145c-2-10.694-3.358-18.177-3.358-18.177Z" transform="translate(-730.481 -418.163)" fill="#12123c"/>
          <path id="Path_130" data-name="Path 130" d="M810.427,509.937s7.157,74.4,8.819,88.795a16.577,16.577,0,0,1-9.867-.736s-9.894-34.567-11.012-44.984-12.309-42.607-10.416-45.6S810.427,509.937,810.427,509.937Z" transform="translate(-719.078 -421.147)" fill="#12123c"/>
          <path id="Path_131" data-name="Path 131" d="M784.252,367.9s2.747,6.61,2.85,8.585-6.181,3.046-9.367,1.418-2.68-3.084-2.68-3.084-1.449-6.722-1.21-7.262S784.252,367.9,784.252,367.9Z" transform="translate(-711.216 -342.541)" fill="#fdb5b4"/>
          <path id="Path_132" data-name="Path 132" d="M821.9,388.64s-11.246,13.979-11.712,15.78c-6.457-7.523-16.389-16.968-16.837-17.329-1.271-1.035-3.555-1.662-5.865-2.041a50.733,50.733,0,0,0-7.118-.592h-.161c.3,1.116-.913,3.176-3.581,3.368-3.163.2-7.618-1.506-8.119-3.368-.026-.091-7.4.37-6.113,14.171a5.624,5.624,0,0,0,.065.6c.5,4.607,1.962,10.7,4.934,18.66,1.066,2.863,4.586,24.116,5.63,24.133a17.837,17.837,0,0,0,2.919,1.04c1.048.3,2.419.631,4.1.944a84.076,84.076,0,0,0,15.419,1.266c12.4,0,15.545-3.533,15.545-3.533.665,0-6.9-17.094-10.877-31.763,4.115,2.4,8.489,4.69,8.954,4.973a10.927,10.927,0,0,0,4.55,1.849h0a1.106,1.106,0,0,0,.139,0,1.963,1.963,0,0,0,1.336-.4,9.133,9.133,0,0,0,3.5-3.955c1.706-3.137,3.728-9.489,5.469-13.727.961-2.345,1.706-4.908,2.689-7.022C826.8,391.686,824.4,389.119,821.9,388.64Z" transform="translate(-704.678 -352.186)" fill="#ea6b69"/>
          <path id="Path_133" data-name="Path 133" d="M781.869,441.619c2.476,10.281-2.232,16.846-5.634,19.988a17.864,17.864,0,0,1-2.919-1.04c-1.044,0-4.564-21.271-5.63-24.133-2.971-7.961-4.429-14.053-4.925-18.669.27-.318.435-.483.435-.483S778.192,426.373,781.869,441.619Z" transform="translate(-704.969 -370.731)" fill="#e75755"/>
          <path id="Path_134" data-name="Path 134" d="M784.641,370.28s-1.584,3.589-4.273,3.624-6.4-3.568-6.4-3.568Z" transform="translate(-711.302 -344.18)" fill="#fc9290"/>
          <path id="Path_135" data-name="Path 135" d="M779.163,351.264a12.311,12.311,0,0,1-3.08,1.828,4.351,4.351,0,0,1-3.046.065,50.2,50.2,0,0,1-4.751-1.658c-1.571-.818-1.923-2.472-2.611-4.786-.814-2.724-1.662-4.864-1.775-6.439-.143-1.879.761-2.945,4.02-3.237,5.978-.531,8.941,1,9.6,3.046.172.553.343,1.075.492,1.575C779.951,348.083,780.06,350.351,779.163,351.264Z" transform="translate(-705.605 -325.343)" fill="#fdb5b4"/>
          <path id="Path_136" data-name="Path 136" d="M774.705,333.673a3.246,3.246,0,0,0-3.128-.9c-1.732.579-1.492,2.175-4.786,1.932s-4.464-1.78-4.847-1.018.5,5.264.5,5.264S752,324.185,765.133,324.185c0,0,13.306-.818,10.824,14.188Z" transform="translate(-702.566 -318.137)" fill="#12123c"/>
          <path id="Path_137" data-name="Path 137" d="M859.14,378.1Z" transform="translate(-759.417 -348.598)" fill="#fdb5b4"/>
          <path id="Path_138" data-name="Path 138" d="M862.4,329.094c.044-.244.078-.4.078-.4a1.046,1.046,0,0,0-.078.4Z" transform="translate(-761.258 -320.685)" fill="#ed6966"/>
          <path id="Path_139" data-name="Path 139" d="M907.59,388.455l-2.146-.326,6.03-34.189h0Z" transform="translate(-785.573 -334.949)" fill="#12123c"/>
          <path id="Path_140" data-name="Path 140" d="M903.442,389.5s1.984,1.974,2.318.87,2.85-2.318,3.046-2.824-2.9-.726-3.348-.74S903.12,388.8,903.442,389.5Z" transform="translate(-784.423 -353.518)" fill="#fdb5b4"/>
          <path id="Path_141" data-name="Path 141" d="M787,390.816a20.581,20.581,0,0,1,5.656-.2s.235,2.854-.583,3.09a10.091,10.091,0,0,1-2.893,0C788.823,393.662,787,390.816,787,390.816Z" transform="translate(-718.662 -355.606)" fill="#0b0754"/>
          <path id="Path_142" data-name="Path 142" d="M792,397.85s9.572,40.17,12.1,42.729a15.213,15.213,0,0,0,4.542,3.359s2.005-2.428,1.974-3.589-15.732-42.494-15.732-42.494Z" transform="translate(-721.487 -359.755)" fill="#0b0754"/>
          <path id="Path_143" data-name="Path 143" d="M822.186,483.391s6.5,2.106,8.462,2.175,4.26-3.262,3.48-4.25c-.221-.287-3.045,1.022-3.867.579-1.227-.675-2.8-.161-3.785-.044s-4.786-2.01-4.786-2.01Z" transform="translate(-738.26 -406.073)" fill="#fdb5b4"/>
          <path id="Path_144" data-name="Path 144" d="M783.8,425.915a146,146,0,0,0-20.314-12.334c.644-5.521.357-14.3-2.054-29.15,0,0-10.254,1.136-11.351,4.722-1.58,5.169,2.14,19.548,5.221,31.056l.118.07a3.915,3.915,0,0,0,.987,1.131c4.351,3.507,27.48,10.242,27.48,10.242C785.567,429.221,783.8,425.915,783.8,425.915Z" transform="translate(-697.595 -352.174)" fill="#ea6b69"/>
          <path id="Path_145" data-name="Path 145" d="M815.691,475.45l-17.341-5.156-.549,2.484L816.375,478Z" transform="translate(-724.764 -400.678)" fill="#c0ccea"/>
          <path id="Path_146" data-name="Path 146" d="M847.691,466.77l-8.771,6.688.687,2.554,10.094-6.887Z" transform="translate(-747.994 -398.689)" fill="#6d89cf"/>
          <path id="Path_147" data-name="Path 147" d="M815.257,481.2l-19.787-6.034.065-.515,19.522,5.813Z" transform="translate(-723.448 -403.141)" fill="#12123c"/>
          <path id="Path_148" data-name="Path 148" d="M840.69,478.995l11.2-7.779-.452-.465-10.946,7.512Z" transform="translate(-748.88 -400.938)" fill="#12123c"/>
          <path id="Path_149" data-name="Path 149" d="M779.759,385.489s-4.534-4.708-4.9-4.4-.835,1.349-.618,1.645,6.1,3.6,6.1,3.6Z" transform="translate(-711.422 -350.279)" fill="#0b0754"/>
          <path id="Path_150" data-name="Path 150" d="M799.514,384.885a38.686,38.686,0,0,1,1.058-4.512c.148.178,1.614,1.475,1.666,1.8s-1.823,2.971-2.7,3.172S799.514,384.885,799.514,384.885Z" transform="translate(-725.52 -349.88)" fill="#0b0754"/>
          <path id="Path_151" data-name="Path 151" d="M3058.279,402.667s2.51-4.825,4.616-5.081,5.508-1.545,5.712.078-7.54,10.007-9.176,7.94S3058.279,402.667,3058.279,402.667Z" transform="translate(-2001.729 -359.194)" fill="#fdb5b4"/>
          <path id="Path_152" data-name="Path 152" d="M2949.46,397.08s3.348,13.522,8.293,23.629c1.384,2.833,14.792,10.921,15.606,11.5,8.445,6.135,8.267-2.876,8.267-2.876.478-5.947-17.251-28.606-17.838-29.22-1.144-1.192-3.586-1.914-6.13-2.354a55.218,55.218,0,0,0-8.2-.683Z" transform="translate(-1940.291 -359.32)" fill="#ea6b69"/>
          <path id="Path_153" data-name="Path 153" d="M2894.683,778.126a12.238,12.238,0,0,1,1.636,5.591,1.2,1.2,0,0,1-1.2,1.214h-9.972a1.483,1.483,0,0,1-1.44-1.845,12.273,12.273,0,0,1,3.45-6.257C2890.33,774.175,2894.683,778.126,2894.683,778.126Z" transform="translate(-1903.117 -573.331)" fill="#060632"/>
          <path id="Path_154" data-name="Path 154" d="M2945.3,771.122s.574,9.246,2.362,9.376h20.466a3.89,3.89,0,0,0-3.48-3.354c-3.29-.574-8.811-2.889-10.808-7.248C2951.721,765.313,2945.3,771.122,2945.3,771.122Z" transform="translate(-1937.941 -568.938)" fill="#060632"/>
          <path id="Path_155" data-name="Path 155" d="M2925.328,580.45c.4,5.134.435,9.186-.074,11.112-2.353,8.6,4.238,47.424,4.238,47.424,4.855,2.323,11.747-.026,11.747-.026-.435-5.377,2.136-53.514,4.516-82.882,1-12.33,1.741-20.958,1.741-20.958l-29.1-3.39S2923.954,562.616,2925.328,580.45Z" transform="translate(-1922.745 -435.387)" fill="#fb9088"/>
          <path id="Path_156" data-name="Path 156" d="M2918.42,531.72s5.543,30.89,6.922,48.728l20.446-24.365c1-12.33,1.74-20.958,1.74-20.958Z" transform="translate(-1922.755 -435.382)" fill="#fb9088"/>
          <path id="Path_157" data-name="Path 157" d="M2914.163,541.751s-14.731,85.771-17.264,102.378a18.608,18.608,0,0,1-11.151-.848s-.727-39.857,1.2-51.861-1.03-49.12,2.08-52.574S2914.163,541.751,2914.163,541.751Z" transform="translate(-1904.221 -438.826)" fill="#fc9492"/>
          <path id="Path_158" data-name="Path 158" d="M2930.993,377.98s1.131,7.622.635,9.9-8.069,3.515-11.238,1.631-2.136-3.559-2.136-3.559.4-7.749.87-8.371S2930.993,377.98,2930.993,377.98Z" transform="translate(-1922.57 -348.19)" fill="#fdb5b4"/>
          <path id="Path_159" data-name="Path 159" d="M2932.958,463.088s-4.716,4.073-19.017,4.073a90.822,90.822,0,0,1-17.4-1.459,44.7,44.7,0,0,1-4.437-1.092,15.665,15.665,0,0,1-3.045-1.2c-1.2,0,1.3-24.526.966-27.844-.966-9.2-.773-16.185.086-21.523a6.59,6.59,0,0,1,.109-.687c2.767-15.907,11.426-16.441,11.426-16.338,0,2.146,4.607,4.116,8.318,3.881,3.128-.213,5.169-2.611,5.169-3.881,0-.044,1.048.13,2.611.387,7.91,1.374,12.521,13.122,12.521,28.811C2930.262,443.214,2933.73,463.088,2932.958,463.088Z" transform="translate(-1905.981 -359.28)" fill="#ea6b69"/>
          <path id="Path_160" data-name="Path 160" d="M2904.815,462.973c-.322,11.855-7.784,19.422-12.67,23.059a15.669,15.669,0,0,1-3.045-1.2c-1.2,0,1.306-24.525.966-27.844-.966-9.2-.772-16.185.086-21.523.409-.366.644-.557.644-.557S2905.287,445.39,2904.815,462.973Z" transform="translate(-1906.007 -380.69)" fill="#e75755"/>
          <path id="Path_161" data-name="Path 161" d="M2932.01,380.73s-2.937,4.142-6.043,4.176-6.274-4.111-6.274-4.111Z" transform="translate(-1923.473 -350.084)" fill="#fc9290"/>
          <path id="Path_162" data-name="Path 162" d="M2930.023,358.854a19.9,19.9,0,0,1-4.115,2.106,5.087,5.087,0,0,1-3.52.074,46.833,46.833,0,0,1-4.964-1.91c-1.557-.944-1.459-2.85-1.536-5.5-.1-3.141-.413-5.608-.061-7.4.435-2.175,1.788-3.4,5.634-3.733,7.057-.614,10.006,1.153,10.12,3.52.03.635.061,1.24.086,1.814C2931.946,355.181,2931.362,357.8,2930.023,358.854Z" transform="translate(-1921.2 -328.412)" fill="#fdb5b4"/>
          <path id="Path_163" data-name="Path 163" d="M2929.5,338.482a2.967,2.967,0,0,0-3.328-1.035c-2.175.67-2.393,2.523-6.095,2.228s-4.6-2.053-5.274-1.174-1.053,6.069-1.053,6.069-7.462-17.02,7.662-17.02c0,0,15.589-.94,8.1,16.359Z" transform="translate(-1919.082 -320.035)" fill="#12123c"/>
          <path id="Path_164" data-name="Path 164" d="M2894.933,397.06s-12.181,1.3-14.544,5.443c-3.42,5.956-3.572,22.542-3.572,35.8,0,0,5.169,3.915,8.7-1.875C2888.873,430.939,2892.444,420.616,2894.933,397.06Z" transform="translate(-1899.254 -359.309)" fill="#ea6b69"/>
          <path id="Path_165" data-name="Path 165" d="M3015.52,389.74Z" transform="translate(-1977.609 -355.173)" fill="#fdb5b4"/>
          <path id="Path_166" data-name="Path 166" d="M3034.26,333.245c.126-.282.217-.465.217-.465a1.508,1.508,0,0,0-.217.465Z" transform="translate(-1988.196 -322.995)" fill="#ed6966"/>
          <path id="Path_167" data-name="Path 167" d="M3064.382,394.208l-2.115-.357,7.314-39.531.731.122Z" transform="translate(-2004.019 -335.163)" fill="#12123c"/>
          <path id="Path_168" data-name="Path 168" d="M3061.29,404.157s2.876.871,2.941-.409,2.611-3.915,2.68-4.55-3.563.9-4.09,1.144S3060.714,403.642,3061.29,404.157Z" transform="translate(-2003.395 -360.433)" fill="#fdb5b4"/>
          <path id="Path_169" data-name="Path 169" d="M3034.919,411.671s-1.974-2.958-4.708-3.511a134.342,134.342,0,0,1-13.031,11.865,19.177,19.177,0,0,0-7.235,11.7c-1.373,6.888,2.061,8.884,2.061,8.884s2.737.343,7.082-5.016c2.937-3.62,7.231-10.942,10.546-15.823C3031.486,417.066,3033.134,414.112,3034.919,411.671Z" transform="translate(-1974.278 -365.579)" fill="#ea6b69"/>
          <path id="Path_170" data-name="Path 170" d="M2928.34,404.387a24.713,24.713,0,0,1,6.574-.235s-.614,3.293-1.631,3.559a11.857,11.857,0,0,1-3.337,0C2929.542,407.667,2928.34,404.387,2928.34,404.387Z" transform="translate(-1928.359 -363.237)" fill="#0b0754"/>
          <path id="Path_171" data-name="Path 171" d="M2931.428,412.51s-1.384,46.314.761,49.263a12.07,12.07,0,0,0,4.207,3.872s3.046-2.8,3.385-4.138-5.007-48.994-5.007-48.994Z" transform="translate(-1929.857 -368.037)" fill="#0b0754"/>
          <path id="Path_172" data-name="Path 172" d="M2939.71,511.09s6.848,2.428,9.08,2.519,5.917-3.763,5.343-4.9c-.166-.331-3.842,1.179-4.635.67-1.209-.773-3.181-.183-4.351-.048s-4.873-2.332-4.873-2.332Z" transform="translate(-1934.782 -421.417)" fill="#fdb5b4"/>
          <path id="Path_173" data-name="Path 173" d="M2887.517,473.252s8.358,4.151,20.392,14.64a7.445,7.445,0,0,1-1.666,6.618s-24.574-7.762-28.52-11.808S2883.834,472.469,2887.517,473.252Z" transform="translate(-1899.257 -402.313)" fill="#ea6b69"/>
          <path id="Path_174" data-name="Path 174" d="M2934.346,501.977l-18.4-5.947-1.4,2.863,19.8,6.03Z" transform="translate(-1920.568 -415.219)" fill="#c0ccea"/>
          <path id="Path_175" data-name="Path 175" d="M2972.242,491.98l-12.177,7.71v2.945l13.766-7.94Z" transform="translate(-1946.28 -412.931)" fill="#6d89cf"/>
          <path id="Path_176" data-name="Path 176" d="M2932.857,508.613l-20.947-6.961.235-.591,20.714,6.7Z" transform="translate(-1919.078 -418.061)" fill="#12123c"/>
          <path id="Path_177" data-name="Path 177" d="M2960.06,506.077l15.319-8.971-.383-.535-14.937,8.658Z" transform="translate(-1946.279 -415.525)" fill="#12123c"/>
          <path id="Path_178" data-name="Path 178" d="M2921.158,398.261s-3.772-5.43-4.292-5.073-1.383,1.557-1.218,1.889,5.892,4.146,5.892,4.146Z" transform="translate(-1921.175 -357.112)" fill="#0b0754"/>
          <path id="Path_179" data-name="Path 179" d="M2942.706,397.544s2.5-5.408,2.611-5.221,1.4,1.7,1.362,2.075-3.02,3.429-4.094,3.659S2942.706,397.544,2942.706,397.544Z" transform="translate(-1936.155 -356.63)" fill="#0b0754"/>
        </g>
      </g>
    </g>
    <circle id="Ellipse_1-2" data-name="Ellipse 1" cx="49.5" cy="49.5" r="49.5" transform="translate(506 380)" fill="#dde8fd"/>
    <circle id="Ellipse_3" data-name="Ellipse 3" cx="49.5" cy="49.5" r="49.5" transform="translate(407 812)" fill="#3662c1"/>
    <circle id="Ellipse_2" data-name="Ellipse 2" cx="82.5" cy="82.5" r="82.5" transform="translate(310 228)" fill="#fc9f9d"/>
  </g>
</svg>
